<svg width="125" height="123" viewBox="0 0 125 123" fill="none" xmlns="http://www.w3.org/2000/svg">
<g clip-path="url(#clip0_4_6)">
<path d="M31.8755 2.55933H93.6897C109.32 2.55933 122.006 15.2455 122.006 30.8758V92.6899C122.006 108.32 109.32 121.006 93.6897 121.006H31.8755C16.2453 121.006 3.55908 108.32 3.55908 92.6899V30.8758C3.55908 15.2455 16.2453 2.55933 31.8755 2.55933Z" fill="#FDBA13"/>
<path d="M62.6836 0.678112C74.8003 0.678112 86.9171 0.667939 99.0338 0.698447C100.091 0.698447 101.149 0.92726 102.202 1.09505C103.33 1.27302 104.378 1.69504 105.466 1.96453C106.686 2.26961 107.835 2.78824 108.964 3.31704C109.834 3.7289 110.713 4.15093 111.506 4.6899C112.025 5.04583 112.564 5.37633 113.062 5.76785C113.774 6.32207 114.527 6.81529 115.208 7.42036C116.174 8.27967 117.049 9.22541 117.852 10.2271C118.523 11.061 119.149 11.9304 119.733 12.8406C120.42 13.9084 121.045 14.9965 121.62 16.1304C122.21 17.2948 122.581 18.5405 123.059 19.7456C123.435 20.6913 123.618 21.6879 123.933 22.6438C124.05 22.9947 124.091 23.3913 124.121 23.7472C124.182 24.4539 124.371 25.1353 124.391 25.8522C124.818 39.4384 124.488 53.0348 124.564 66.621C124.62 75.8395 124.564 85.0528 124.584 94.2713C124.584 95.5882 124.467 96.895 124.32 98.1814C124.157 99.6102 123.837 101.034 123.43 102.437C122.977 103.993 122.454 105.508 121.788 106.983C121.005 108.722 120.049 110.359 118.92 111.89C117.969 113.171 116.932 114.386 115.772 115.49C114.461 116.735 113.062 117.874 111.517 118.805C110.301 119.532 109.04 120.183 107.718 120.727C106.483 121.235 105.217 121.632 103.956 122.039C103.254 122.267 102.502 122.374 101.769 122.481C96.2677 123.289 90.7255 122.842 85.2035 122.857C65.6225 122.918 46.0364 122.888 26.4554 122.852C25.2351 122.852 24.0046 122.603 22.7894 122.339C21.8742 122.14 20.9691 121.912 20.0742 121.657C19.2047 121.408 18.3709 121.017 17.5268 120.686C16.1743 120.152 14.9235 119.435 13.6828 118.688C11.654 117.468 9.85914 115.973 8.2829 114.208C6.54395 112.266 5.09482 110.135 3.92026 107.797C3.35078 106.663 2.8474 105.498 2.43555 104.314C2.06945 103.256 1.73895 102.178 1.53048 101.064C1.24573 99.5645 1.0576 98.0645 0.905065 96.5493C0.788118 95.3493 0.777949 94.1595 0.777949 92.9697C0.767779 71.9395 0.777949 50.9043 0.762695 29.8742C0.762695 28.3946 0.905063 26.9251 1.00676 25.4556C1.0932 24.2404 1.30675 23.0252 1.60166 21.8404C1.98809 20.31 2.47114 18.8151 3.1118 17.3558C3.82365 15.7338 4.6372 14.1931 5.62871 12.7237C6.19311 11.8949 6.80326 11.1118 7.42359 10.3288C8.64391 8.79322 10.0422 7.46612 11.5574 6.25089C12.2438 5.70175 12.9964 5.24922 13.7438 4.78143C14.5167 4.29839 15.2845 3.82043 16.1082 3.42891C16.8556 3.07298 17.6082 2.74756 18.3861 2.47808C19.5912 2.06113 20.7911 1.6442 22.0216 1.31369C22.8453 1.08997 23.7047 0.952681 24.5538 0.886581C30.7876 0.423877 37.0315 0.744211 43.2704 0.68828C49.7381 0.627264 56.2007 0.673026 62.6684 0.673026V0.683194L62.6836 0.678112ZM22.2098 50.9094C22.2657 51.1687 22.5047 51.0416 22.647 51.1128C23.7555 51.6619 24.9453 52.0128 26.1046 52.4399C27.3402 52.8975 28.6012 53.3043 29.852 53.7365C31.1028 54.1687 32.3689 54.5856 33.5841 55.1348C34.1282 55.3788 34.7638 55.4602 35.3434 55.6737C36.1875 55.989 37.0519 56.2686 37.901 56.5737C38.7501 56.8737 39.5993 57.1788 40.4433 57.4889C41.2264 57.7737 41.9992 58.0788 42.7924 58.3432C43.3365 58.5262 43.8602 58.755 44.389 58.9635C45.2687 59.3092 46.1941 59.5126 47.0534 59.9448C47.7347 60.2906 48.5127 60.4431 49.2449 60.6821C49.8754 60.8855 50.5109 61.0787 51.1364 61.3024C52.0363 61.6228 52.9262 61.9634 53.816 62.2889C54.66 62.599 55.5092 62.899 56.3583 63.2092C57.1617 63.499 57.96 63.7939 58.7583 64.0837C59.6379 64.399 60.5125 64.7397 61.4074 65.0041C61.9514 65.1668 62.5006 65.4312 63.0904 65.2786C63.4616 65.182 63.8175 65.0142 64.1836 64.8922C65.0734 64.5922 65.9632 64.3024 66.853 64.0024C67.931 63.6363 69.0038 63.2651 70.0767 62.8939C70.9818 62.5838 71.8868 62.2685 72.7919 61.9533C73.6156 61.6685 74.4292 61.3482 75.2681 61.1041C75.5986 61.0075 75.7562 60.8753 75.7562 60.5499C75.7562 58.8821 75.7664 57.2144 75.7461 55.5517C75.7461 55.2364 75.6596 54.9517 75.2478 54.8195C74.8664 54.6975 74.4851 54.5602 74.1139 54.4127C72.6597 53.8432 71.2106 53.2789 69.7716 52.6636C69.2682 52.4501 68.7089 52.4246 68.231 52.0941C67.5598 51.6365 66.8835 51.6975 66.1564 52.1501C65.1802 52.7501 64.0819 53.0602 62.9124 53.0958C61.8345 53.1314 60.7769 53.045 59.7701 52.6484C59.2515 52.445 58.7023 52.2365 58.2752 51.8958C57.6803 51.423 57.1261 50.8789 56.6735 50.2535C56.0125 49.3332 55.5702 48.301 55.3973 47.1874C55.3007 46.5671 55.2905 45.9315 55.3414 45.2909C55.3922 44.6807 55.4888 44.0807 55.677 43.5112C56.7041 40.3384 59.6684 38.5486 62.7853 38.5028C63.3853 38.4927 63.9599 38.7367 64.5497 38.8486C65.2005 38.9757 65.7852 39.235 66.3446 39.5452C67.3462 40.1045 68.1445 40.8875 68.8309 41.8231C69.4309 42.6468 69.8123 43.5163 69.9597 44.5078C69.9903 44.701 70.0157 44.8129 70.2343 44.8993C71.8411 45.5502 73.4021 46.3078 75.0291 46.9129C76.4884 47.4569 77.9121 48.1078 79.3562 48.6976C80.2409 49.0637 81.146 49.384 82.0155 49.7603C83.1443 50.2484 84.2069 50.8941 85.0561 51.8501C85.712 52.5873 86.3018 53.35 86.7899 54.2043C87.2323 54.9873 87.4611 55.8568 87.8323 56.6347C88.6153 56.3652 89.3729 56.1364 90.1051 55.8415C91.8492 55.1297 93.639 54.55 95.3983 53.8941C96.522 53.4721 97.6609 53.0755 98.805 52.7043C99.9643 52.328 101.068 51.8196 102.232 51.4484C102.471 51.3721 102.822 51.4026 102.969 51.0925C103.681 50.8484 104.398 50.6196 105.105 50.3603C106.234 49.9433 107.357 49.506 108.481 49.0738C109.229 48.784 110.017 48.5857 110.779 48.1586C109.834 47.5739 108.822 47.3044 107.876 46.8874C107.118 46.5569 106.335 46.2925 105.568 45.9875C104.683 45.6315 103.813 45.2502 102.929 44.8943C101.952 44.5027 100.971 44.1316 99.9897 43.7502C98.9321 43.3333 97.8796 42.9062 96.822 42.4994C95.6932 42.0672 94.5542 41.6706 93.4305 41.2282C91.9814 40.6587 90.5475 40.0587 89.1035 39.4791C88.2086 39.1181 87.2933 38.7927 86.4035 38.4266C85.2798 37.969 84.1205 37.5978 83.0375 37.0588C82.2646 36.6775 81.4155 36.5453 80.6477 36.1334C80.0019 35.7876 79.2697 35.5741 78.5782 35.3046C77.4545 34.8622 76.3003 34.4911 75.1868 34.0233C73.7071 33.4029 72.2021 32.8487 70.7123 32.2436C69.6292 31.8064 68.5462 31.364 67.4683 30.9165C66.1564 30.3725 64.8192 29.8844 63.5022 29.3352C63.1056 29.1725 62.6175 28.9183 62.1243 29.1013C61.1989 29.4471 60.2786 29.8132 59.3633 30.1793C57.7871 30.8047 56.2159 31.4403 54.6448 32.0708C53.6736 32.4572 52.7075 32.8487 51.7363 33.2351C50.8821 33.5707 50.0432 33.9419 49.1838 34.2673C48.3957 34.5622 47.6076 34.8419 46.8246 35.1521C45.9042 35.5182 44.989 35.9097 44.0687 36.2758C43.1789 36.6266 42.2738 36.952 41.384 37.308C40.7789 37.5469 40.1891 37.8266 39.584 38.0605C38.4807 38.4927 37.3671 38.8994 36.2637 39.3367C35.1807 39.7638 34.1282 40.2774 33.0248 40.6486C31.5452 41.1469 30.1418 41.8384 28.6622 42.3367C27.5436 42.7129 26.4707 43.2316 25.3724 43.6689C24.2741 44.1061 23.1606 44.5129 22.0623 44.9451C20.6386 45.5095 19.2251 46.0942 17.8065 46.6688C16.7997 47.0756 15.7929 47.4773 14.7811 47.8739C14.654 47.9247 14.5828 47.9705 14.598 48.1179C14.6133 48.2603 14.7302 48.2349 14.8218 48.2654C15.1472 48.3772 15.4777 48.484 15.8031 48.601C16.4031 48.8196 16.9929 49.0535 17.5929 49.2671C18.442 49.5721 19.2759 49.923 20.1403 50.1772C20.8369 50.3857 21.5182 50.6603 22.2047 50.9094H22.2098ZM64.2039 116.064C72.675 115.952 83.3832 116.237 94.0915 115.947C95.2254 115.917 96.3593 115.932 97.4931 115.932C98.7185 115.932 99.9541 115.907 101.154 115.657C102.196 115.439 103.224 115.129 104.235 114.737C105.908 114.091 107.525 113.349 108.969 112.286C110.367 111.259 111.613 110.069 112.732 108.727C114.125 107.059 115.218 105.239 116.057 103.23C116.647 101.822 116.998 100.353 117.354 98.8882C117.684 97.5052 117.72 96.056 117.725 94.6476C117.786 84.0664 117.766 73.4802 117.771 62.899C117.771 60.1075 117.791 57.311 117.755 54.5195C117.75 53.9399 117.415 53.5382 116.911 53.6856C116.072 53.9348 115.218 54.1585 114.425 54.5195C113.296 55.028 112.101 55.3483 110.962 55.8212C109.284 56.5127 107.535 57.0415 105.837 57.6923C104.363 58.2567 102.908 58.8618 101.378 59.2787C101.113 59.3499 100.971 59.5228 100.971 59.8126C100.976 60.3465 100.971 60.8804 100.971 61.4143C100.971 68.3142 100.971 75.214 100.971 82.1139C100.971 83.1766 100.829 84.2139 100.61 85.2562C100.463 85.9732 100.224 86.6393 99.9897 87.3257C99.5728 88.5358 98.9626 89.6443 98.2101 90.6663C97.3152 91.8866 96.2423 92.9341 95.0576 93.8798C93.6746 94.9781 92.1695 95.8781 90.5882 96.651C89.1848 97.3374 87.7408 97.9475 86.2459 98.4102C85.0357 98.7865 83.8307 99.1882 82.6053 99.5238C81.329 99.8695 80.068 100.261 78.7613 100.48C78.3901 100.541 78.0138 100.607 77.663 100.724C76.9054 100.978 76.1173 101.11 75.3393 101.247C74.8105 101.339 74.2563 101.405 73.7427 101.522C72.7207 101.751 71.6784 101.832 70.6563 102.036C69.5682 102.254 68.4394 102.28 67.3361 102.427C66.3751 102.554 65.3937 102.539 64.4175 102.625C62.1751 102.824 59.9379 102.503 57.7006 102.442C57.6345 102.442 57.5634 102.442 57.5023 102.422C56.7651 102.153 55.9769 102.193 55.2193 102.102C54.4871 102.015 53.755 101.878 53.0126 101.802C52.5855 101.761 52.1228 101.741 51.7008 101.619C50.8211 101.364 49.911 101.283 49.0211 101.09C48.3093 100.937 47.6025 100.734 46.8754 100.617C46.1331 100.5 45.411 100.241 44.6738 100.053C44.0738 99.9 43.4738 99.7526 42.8789 99.5899C41.9636 99.3356 41.0789 98.9645 40.1688 98.6797C38.9637 98.3035 37.7586 97.9119 36.5841 97.4492C35.7146 97.1086 34.8248 96.7781 34.0062 96.3306C32.7604 95.6442 31.5198 94.9476 30.3706 94.0883C29.3029 93.29 28.3113 92.4053 27.4724 91.3832C26.5317 90.2443 25.7538 88.9884 25.2199 87.5901C24.6657 86.1511 24.2182 84.6664 24.2131 83.141C24.1623 75.4581 24.1877 67.7752 24.1877 60.0923C24.1877 59.6398 24.264 59.294 23.5928 59.0652C22.3267 58.6381 21.0606 58.1652 19.8047 57.7025C18.1166 57.0771 16.4285 56.4517 14.6946 55.928C12.7167 55.3331 10.81 54.5144 8.89814 53.7212C8.14561 53.4111 7.74901 53.6602 7.74901 54.4534C7.74901 65.6346 7.72358 76.8208 7.74901 88.0019C7.75409 91.2256 7.57105 94.4493 7.93206 97.673C8.03883 98.6187 8.21171 99.5543 8.42018 100.464C8.69475 101.664 9.10153 102.849 9.62016 103.968C10.5252 105.92 11.6744 107.725 13.1387 109.332C14.6082 110.944 16.2556 112.317 18.1624 113.364C19.3319 114.01 20.5674 114.508 21.8386 114.951C23.0996 115.388 24.3911 115.708 25.6978 115.84C27.6147 116.029 29.552 116.018 31.474 116.029C41.6382 116.084 51.8075 116.054 64.2141 116.054L64.2039 116.064ZM62.7751 7.60341C61.7073 7.60341 60.6396 7.60341 59.5769 7.60341C48.9754 7.61358 38.379 7.62883 27.7775 7.64409C27.0097 7.64409 26.2266 7.5729 25.4843 7.71527C24.6046 7.88306 23.7148 8.01018 22.8453 8.2339C22.1284 8.41695 21.4267 8.64576 20.72 8.84915C19.8607 9.0983 19.0369 9.52541 18.2539 9.97286C17.4404 10.4406 16.6472 10.9644 15.9404 11.5898C15.7065 11.7982 15.3862 11.8389 15.1675 12.083C14.3235 13.0338 13.3014 13.8016 12.5032 14.8084C11.9693 15.4795 11.4557 16.1711 10.9676 16.8727C10.1744 18.0066 9.59982 19.2574 9.08627 20.5388C8.65916 21.6015 8.33374 22.6896 8.13544 23.8285C7.96765 24.7997 7.77952 25.7709 7.77443 26.7573C7.75409 30.6928 7.75918 34.6233 7.75409 38.5588C7.75409 39.8604 7.76426 41.157 7.76426 42.4587C7.76426 42.835 7.78969 43.0638 8.2829 42.8248C8.91848 42.5146 9.61508 42.3113 10.2608 42.0265C11.5879 41.4418 12.976 41.0147 14.298 40.4299C16.3929 39.4994 18.559 38.7571 20.6691 37.8825C21.9403 37.3537 23.2165 36.8198 24.4979 36.3165C25.3419 35.9859 26.191 35.6605 27.03 35.3148C28.2198 34.8266 29.43 34.3894 30.635 33.9216C31.3571 33.6419 32.0791 33.3572 32.8062 33.0724C33.5994 32.7623 34.3977 32.4572 35.1909 32.1369C36.2078 31.7301 37.2095 31.2674 38.2468 30.9064C39.3806 30.5098 40.4382 29.9403 41.5874 29.5742C42.4874 29.2844 43.3314 28.8115 44.2314 28.5166C45.3856 28.1352 46.4737 27.5963 47.6127 27.1793C48.5076 26.8488 49.3669 26.4166 50.272 26.1115C51.2686 25.776 52.2143 25.3285 53.2007 24.9675C54.2329 24.5912 55.2295 24.1082 56.2566 23.7116C57.4362 23.254 58.6362 22.8421 59.826 22.4048C60.6192 22.115 61.3667 21.7082 62.1955 21.5252C62.5209 21.454 62.8667 21.4235 63.187 21.5201C64.5293 21.9116 65.7903 22.5269 67.1123 22.9794C68.4089 23.4218 69.6445 24.037 70.936 24.52C72.6597 25.1607 74.358 25.8624 76.0715 26.5336C77.4138 27.0573 78.7613 27.5708 80.0833 28.1403C81.8477 28.903 83.6629 29.5183 85.4273 30.2759C86.4645 30.7233 87.5526 31.0437 88.5797 31.5064C89.5712 31.9538 90.5984 32.2945 91.6051 32.6962C92.2509 32.9555 92.8915 33.2199 93.5322 33.4843C94.4627 33.8656 95.4237 34.1758 96.3338 34.5826C97.1881 34.969 98.0525 35.3453 98.927 35.6402C100.473 36.1588 101.947 36.8351 103.478 37.3893C104.8 37.8673 106.081 38.4571 107.398 38.9554C108.766 39.474 110.149 39.9774 111.481 40.5825C113.312 41.4164 115.239 42.0062 117.069 42.835C117.328 42.9519 117.618 42.9672 117.633 42.4943C117.674 41.035 117.74 39.5757 117.75 38.1215C117.776 34.8165 117.893 31.5064 117.669 28.1963C117.557 26.5183 117.445 24.8556 117.049 23.2133C116.739 21.9167 116.342 20.6506 115.772 19.4608C114.811 17.4575 113.678 15.5558 112.056 13.9846C110.957 12.922 109.94 11.7779 108.603 10.9898C107.952 10.6084 107.337 10.1559 106.681 9.78472C105.583 9.15931 104.388 8.77796 103.178 8.41695C101.856 8.02035 100.524 7.68985 99.1457 7.67968C87.0289 7.56273 74.9122 7.61866 62.7955 7.60849L62.7751 7.60341ZM31.0062 80.5123C31.0062 80.5123 30.996 80.5123 30.991 80.5123C30.991 80.7106 30.991 80.9139 30.991 81.1122C30.9757 83.1309 31.4282 84.9918 32.8163 86.5427C33.4621 87.2596 34.1434 87.9308 34.9316 88.4952C36.3807 89.5375 37.9824 90.2646 39.64 90.9053C41.1806 91.4951 42.7213 92.0544 44.3026 92.5273C45.6297 92.9239 46.9669 93.2798 48.3042 93.6408C49.5093 93.9662 50.7398 94.2052 51.9702 94.4442C53.1397 94.673 54.3143 94.8916 55.4939 95.034C56.6837 95.1764 57.8786 95.3798 59.0684 95.4154C60.6548 95.4611 62.2311 95.6544 63.8277 95.5374C65.5717 95.4103 67.3208 95.395 69.0598 95.1103C70.0106 94.9527 70.9716 94.8611 71.9275 94.7035C73.0105 94.5256 74.0885 94.3222 75.1664 94.1035C76.2851 93.8747 77.3884 93.5849 78.4969 93.3154C79.7121 93.0205 80.9121 92.7002 82.1019 92.2985C83.3629 91.8714 84.6086 91.4036 85.8442 90.9053C87.5781 90.2087 89.2814 89.4816 90.756 88.2969C91.8644 87.402 92.7746 86.3596 93.3797 85.0681C93.9237 83.9088 94.122 82.6682 94.1576 81.4021C94.1779 80.736 94.1576 80.0699 94.1576 79.4038C94.1576 78.8547 93.9339 78.7275 93.3949 78.9208C92.6424 79.1902 91.8797 79.4343 91.1119 79.6682C90.1662 79.958 89.2001 80.2021 88.2645 80.5224C87.4662 80.797 86.6527 81.0258 85.8442 81.275C85.1273 81.4987 84.4052 81.7275 83.6883 81.9563C82.7476 82.2614 81.807 82.5665 80.8612 82.8715C80.0985 83.1156 79.3257 83.3292 78.5731 83.5986C77.8359 83.863 77.0783 84.0563 76.3257 84.2749C75.7613 84.4427 75.1868 84.6003 74.6275 84.7732C73.6817 85.0681 72.7461 85.3884 71.7953 85.663C71.0224 85.8867 70.2496 86.1054 69.4818 86.3393C68.7598 86.5579 68.0428 86.8274 67.3157 87.0257C66.4971 87.2443 65.6937 87.5087 64.8649 87.707C63.8683 87.9409 62.9226 88.307 61.8446 88.1087C61.1582 87.9816 60.5023 87.763 59.8362 87.5901C58.9921 87.3765 58.1532 87.1121 57.3142 86.8579C56.76 86.6901 56.1905 86.5681 55.6566 86.3749C54.7414 86.0444 53.8007 85.8105 52.8906 85.485C52.1533 85.2206 51.3702 85.0579 50.6279 84.8088C49.4788 84.4224 48.3042 84.1173 47.1652 83.6952C46.2042 83.3393 45.1771 83.1766 44.2161 82.8207C42.8636 82.3224 41.4806 81.9461 40.123 81.4682C39.4315 81.2241 38.6891 81.097 38.0129 80.8173C37.062 80.4207 36.04 80.2428 35.0841 79.8665C34.3621 79.5818 33.6096 79.3631 32.8723 79.1191C32.3842 78.9614 31.896 78.814 31.4028 78.6767C31.1333 78.6004 30.9757 78.6462 30.996 79.0021C31.0265 79.5004 31.0062 80.0038 31.0062 80.5021V80.5123ZM30.9706 66.3413C30.9706 67.6888 30.9706 69.0413 30.9706 70.3887C30.9706 70.5667 30.9045 70.765 31.1791 70.8819C32.2672 71.3446 33.4011 71.67 34.5146 72.0616C35.6129 72.448 36.7417 72.7429 37.8552 73.0937C39.1671 73.5056 40.4586 73.9683 41.7908 74.3141C42.4975 74.4971 43.1789 74.8022 43.8704 75.0412C44.5111 75.2598 45.1466 75.5191 45.8026 75.6615C46.8042 75.8801 47.7398 76.3123 48.7262 76.5666C49.4838 76.7598 50.2211 77.0445 50.9686 77.2886C51.5685 77.4818 52.1685 77.6699 52.7736 77.853C53.4702 78.0716 54.1719 78.2852 54.8685 78.4987C55.621 78.7326 56.3735 78.9716 57.1261 79.2106C58.0464 79.5004 58.9769 79.775 59.8921 80.0902C60.4565 80.2834 61.0362 80.4004 61.5955 80.6089C62.1243 80.8021 62.6938 81.0563 63.2683 80.8326C64.2344 80.4614 65.2463 80.2631 66.2174 79.9174C67.4937 79.4648 68.8004 79.0784 70.1072 78.7123C71.7445 78.2547 73.336 77.6496 74.9885 77.2581C75.6596 77.1005 75.7613 76.9327 75.7512 76.2361C75.7512 75.9869 75.7512 75.7378 75.7512 75.4886C75.7308 73.3327 75.7918 71.1819 75.6901 69.026C75.68 68.8226 75.6139 68.6243 75.3393 68.6599C75.1359 68.6904 74.9376 68.7057 74.7292 68.787C73.7071 69.1836 72.6597 69.504 71.6326 69.8802C70.8292 70.1752 70.0258 70.465 69.2072 70.7243C68.3327 70.9989 67.4835 71.3497 66.6191 71.6599C65.7242 71.9802 64.8293 72.3107 63.9192 72.5904C63.3904 72.7531 62.8768 72.9921 62.2717 72.9056C61.6158 72.8141 61.0616 72.4785 60.4514 72.3005C58.9921 71.8734 57.5837 71.2836 56.1397 70.8158C54.299 70.2158 52.5194 69.448 50.6787 68.8379C49.4584 68.4362 48.2737 67.9277 47.0585 67.4955C45.289 66.865 43.4941 66.3057 41.745 65.6244C40.001 64.9481 38.2315 64.3583 36.4824 63.7075C34.835 63.0973 33.157 62.5787 31.5248 61.9228C31.1384 61.7702 30.9706 61.8821 30.9706 62.299C30.9655 63.6465 30.9706 64.999 30.9706 66.3464V66.3413ZM88.2238 72.9971C88.9255 72.8751 89.5916 72.626 90.2628 72.4277C91.239 72.1378 92.2 71.7717 93.1763 71.4616C93.8407 71.2548 94.1712 70.7887 94.1678 70.0633C94.1627 67.6684 94.1576 65.2685 94.1525 62.8736C94.1525 62.7261 94.178 62.5685 94.1474 62.4261C94.1017 62.2278 93.9796 61.999 93.7458 62.116C93.5017 62.238 93.2322 62.2228 92.9983 62.3244C91.7424 62.8685 90.4356 63.2499 89.1391 63.6719C88.3001 63.9414 88.1577 64.0736 88.1577 64.938C88.1577 67.4498 88.1577 69.9616 88.1628 72.4785C88.1628 72.6565 88.1272 72.8446 88.2187 73.0022L88.2238 72.9971Z" fill="#F8961D"/>
<path d="M102.479 50.8375C102.644 50.9228 102.808 51.0081 102.974 51.0873L102.98 51.0974C103.217 51.0161 103.455 50.9364 103.692 50.8568C104.168 50.6974 104.644 50.5381 105.115 50.3652C106.034 50.0258 106.95 49.6728 107.865 49.3201C108.074 49.2396 108.282 49.1591 108.491 49.0788C108.719 48.9909 108.951 48.9119 109.183 48.8324C109.717 48.6498 110.258 48.4647 110.79 48.1636C110.162 47.7756 109.505 47.5264 108.858 47.2808C108.53 47.1563 108.204 47.0327 107.886 46.8924C107.441 46.6981 106.987 46.5284 106.532 46.3585C106.213 46.2394 105.894 46.1202 105.578 45.9924C105.135 45.8145 104.697 45.6302 104.258 45.4459C103.82 45.2615 103.381 45.0772 102.939 44.8992C102.404 44.6849 101.867 44.4782 101.33 44.2716C100.886 44.1008 100.442 43.9301 99.9999 43.7552C99.5384 43.5755 99.0788 43.3919 98.6191 43.2082C98.0253 42.971 97.4312 42.7336 96.8322 42.5044C96.3427 42.317 95.8513 42.1362 95.3601 41.9556C94.7185 41.7196 94.0771 41.4837 93.4407 41.2332C92.5713 40.8915 91.7073 40.5389 90.8433 40.1862C90.2673 39.9511 89.6913 39.7159 89.1137 39.4841C88.6662 39.3036 88.2149 39.1307 87.7636 38.9578C87.3124 38.7849 86.8612 38.612 86.4137 38.4316C86.0553 38.2872 85.6932 38.1506 85.3311 38.014C84.5581 37.7224 83.7852 37.4308 83.0477 37.0638C82.6788 36.8793 82.2926 36.754 81.9061 36.6285C81.4828 36.4912 81.0592 36.3537 80.6579 36.1384C80.2214 35.9047 79.7455 35.7337 79.2692 35.5626C79.0409 35.4806 78.8125 35.3986 78.5884 35.3096C78.1111 35.1216 77.6282 34.9466 77.1452 34.7715C76.4914 34.5344 75.8375 34.2973 75.197 34.0282C74.3499 33.6702 73.4929 33.3372 72.6363 33.0043C71.9966 32.7558 71.3572 32.5073 70.7225 32.2486C70.4046 32.1188 70.0867 31.9894 69.7689 31.86C69.0041 31.5487 68.24 31.2376 67.4785 30.9215C66.7882 30.6326 66.0908 30.3605 65.3931 30.0883C64.7649 29.8432 64.1364 29.598 63.5125 29.3402C63.47 29.3228 63.4265 29.3043 63.3821 29.2854C63.0113 29.1281 62.5749 28.9428 62.1345 29.1063C61.2091 29.4571 60.2888 29.8181 59.3735 30.1842C58.6374 30.4773 57.9012 30.7737 57.1645 31.0703C56.3289 31.4067 55.4927 31.7434 54.655 32.0757C54.253 32.2357 53.8518 32.3974 53.4509 32.559C52.8832 32.7879 52.3157 33.0166 51.7466 33.2401C51.374 33.3865 51.0044 33.5396 50.6347 33.6928C50.1567 33.8908 49.6786 34.0888 49.1941 34.2723C48.8607 34.4 48.5255 34.5231 48.19 34.6464C47.7374 34.8126 47.2844 34.9789 46.8348 35.157C46.3562 35.3464 45.8818 35.5425 45.4078 35.7384C44.9653 35.9213 44.5233 36.104 44.0789 36.2807C43.6005 36.4721 43.1176 36.6547 42.6351 36.8371C42.2202 36.994 41.8056 37.1507 41.3942 37.3129C41.0917 37.4324 40.7929 37.5608 40.4942 37.6892C40.1955 37.8176 39.8968 37.946 39.5942 38.0655C39.0866 38.2643 38.5769 38.4577 38.0669 38.6513C37.4684 38.8784 36.8697 39.1056 36.274 39.3417C35.8652 39.5029 35.4608 39.6764 35.0564 39.8499C34.3892 40.1362 33.722 40.4225 33.035 40.6535C32.2952 40.9027 31.5745 41.2001 30.8537 41.4976C30.133 41.7951 29.4122 42.0925 28.6724 42.3417C27.9597 42.5814 27.2655 42.8789 26.5715 43.1764C26.1763 43.3458 25.7811 43.5152 25.3826 43.6738C24.8748 43.8737 24.3638 44.0681 23.8525 44.2625C23.2579 44.4887 22.663 44.715 22.0725 44.9501C21.1234 45.3263 20.1788 45.7116 19.2342 46.0969C18.7619 46.2896 18.2895 46.4823 17.8167 46.6738C16.8099 47.0805 15.8031 47.4822 14.7913 47.8788C14.6642 47.9297 14.5879 47.9754 14.6082 48.1229C14.6235 48.2298 14.6933 48.2421 14.7637 48.2545C14.787 48.2586 14.8104 48.2628 14.832 48.2704C15.1625 48.3771 15.4879 48.489 15.8133 48.6059C16.0552 48.6949 16.2971 48.7863 16.5394 48.8778C16.8929 49.0114 17.2471 49.1453 17.6031 49.272C17.9036 49.3782 18.2015 49.4907 18.4995 49.6033C19.0438 49.8088 19.5887 50.0146 20.1505 50.1822C20.622 50.3223 21.082 50.4945 21.5414 50.6665C21.7656 50.7504 21.9897 50.8343 22.2149 50.9144C22.2887 50.9144 22.3716 50.925 22.4544 50.9356C22.6281 50.9578 22.8016 50.98 22.8911 50.9042C23.1663 50.667 23.4907 50.5537 23.814 50.4408C24.0105 50.3722 24.2066 50.3037 24.3911 50.2076C25.2736 49.7434 26.211 49.4152 27.1467 49.0876C27.451 48.9811 27.7552 48.8746 28.0572 48.7636C28.6168 48.5575 29.1711 48.3385 29.7254 48.1195C30.3748 47.8629 31.0242 47.6063 31.6825 47.3704C32.2106 47.182 32.7274 46.9673 33.2444 46.7526C33.5786 46.6138 33.9129 46.475 34.2503 46.3433C34.6768 46.1762 35.1071 46.0169 35.5373 45.8576C36.4556 45.5175 37.374 45.1775 38.257 44.7619C38.7961 44.5085 39.351 44.3013 39.9062 44.0938C40.4874 43.8768 41.0689 43.6595 41.6332 43.3891C42.2789 43.0789 43.0009 42.8501 43.7077 42.6315C44.4576 42.3984 45.1828 42.0846 45.9086 41.7704C46.2754 41.6117 46.6424 41.4529 47.0127 41.3044C47.5436 41.0925 48.0775 40.8864 48.6117 40.6802C49.2952 40.4164 49.9792 40.1524 50.6584 39.8756C50.8571 39.7944 51.057 39.7167 51.2571 39.639C51.6457 39.4879 52.0351 39.3366 52.4177 39.1587C52.7709 38.9944 53.1417 38.8667 53.5138 38.7387C53.9132 38.6012 54.314 38.4633 54.6957 38.279C54.7708 38.2422 54.8451 38.2021 54.9194 38.1621C55.0913 38.0693 55.2636 37.9763 55.4482 37.9231C56.0696 37.7469 56.6629 37.4973 57.2565 37.2476C57.6391 37.0866 58.0219 36.9256 58.4125 36.7841C58.8288 36.6336 59.2418 36.4763 59.6542 36.3191C60.3703 36.0462 61.0851 35.7739 61.8142 35.5384C61.8834 35.5157 61.9555 35.4868 62.029 35.4573C62.2525 35.3677 62.4898 35.2725 62.704 35.3299C62.8074 35.3563 62.9116 35.3817 63.0159 35.4071C63.4552 35.5142 63.8969 35.622 64.2955 35.8028C64.7884 36.0249 65.2957 36.2008 65.8029 36.3766C66.2479 36.531 66.6928 36.6852 67.1276 36.8706C67.8257 37.1697 68.5391 37.4329 69.2531 37.6962C69.959 37.9566 70.6655 38.2172 71.3581 38.5129C72.8275 39.1383 74.3072 39.7281 75.7868 40.318C76.6075 40.6462 77.4306 40.9649 78.2544 41.2839C78.6301 41.4293 79.0059 41.5748 79.3816 41.7213C79.7614 41.8696 80.1433 42.0127 80.525 42.1558C81.3342 42.459 82.1431 42.7621 82.9307 43.1145C83.6546 43.4352 84.395 43.7105 85.1333 43.985C85.2144 44.0152 85.2954 44.0453 85.3765 44.0755C86.3832 44.4518 87.3798 44.8535 88.3611 45.2755C88.8551 45.4878 89.3539 45.6864 89.8529 45.885C90.4892 46.1383 91.1257 46.3917 91.7526 46.6738C92.4372 46.9793 93.1455 47.234 93.8541 47.4887C94.3718 47.6748 94.8896 47.8609 95.3983 48.067C96.4254 48.4788 97.4627 48.8856 98.4999 49.2568C98.8902 49.3966 99.2745 49.5502 99.6588 49.7037C100.211 49.9242 100.763 50.1447 101.332 50.3246C101.728 50.4482 102.104 50.6431 102.479 50.8375Z" fill="#FEF5E3"/>
<path d="M31.0092 80.0845C31.0075 80.2273 31.0059 80.3699 31.0059 80.5121V80.5222H30.9906V81.1222C30.9754 83.1409 31.4279 85.0069 32.816 86.5526C33.4567 87.2696 34.1431 87.9408 34.9312 88.5052C36.3803 89.5475 37.982 90.2797 39.6396 90.9153C41.1752 91.5051 42.7209 92.0644 44.3022 92.5373C45.6293 92.9339 46.9666 93.2949 48.3039 93.6508C49.514 93.9711 50.7445 94.2152 51.9699 94.4542C53.1394 94.683 54.3139 94.9016 55.4936 95.044C55.8092 95.0818 56.1251 95.1238 56.4413 95.1659C57.3169 95.2825 58.1939 95.3992 59.0681 95.4254C59.5766 95.4401 60.0851 95.4701 60.5942 95.5C61.668 95.5633 62.7442 95.6267 63.8273 95.5474C64.3393 95.5102 64.8512 95.4826 65.3628 95.455C66.599 95.3883 67.833 95.3217 69.0594 95.1203C69.5372 95.0411 70.0175 94.9786 70.4984 94.916C70.9747 94.854 71.4515 94.7919 71.9272 94.7135C73.0153 94.5356 74.0881 94.3322 75.1661 94.1135C76.0051 93.9419 76.8356 93.736 77.666 93.53C77.9427 93.4614 78.2195 93.3928 78.4965 93.3254C79.7168 93.0305 80.9168 92.7102 82.1015 92.3085C83.3625 91.8763 84.6083 91.4136 85.8438 90.9153C87.5777 90.2187 89.2811 89.4916 90.7556 88.3069C91.8641 87.412 92.7742 86.3696 93.3793 85.0781C93.9234 83.9188 94.1217 82.6781 94.1572 81.4121C94.1708 80.968 94.1663 80.5239 94.1618 80.0799C94.1595 79.8579 94.1572 79.6358 94.1572 79.4138C94.1623 78.8647 93.9335 78.7375 93.3946 78.9308C92.6369 79.2002 91.8743 79.4443 91.1115 79.6782C90.7544 79.7877 90.3943 79.8906 90.0341 79.9936C89.4404 80.1632 88.8464 80.3331 88.2641 80.5324C87.769 80.7016 87.2701 80.8515 86.772 81.0012C86.4619 81.0943 86.1521 81.1874 85.8438 81.2849C85.1229 81.5083 84.407 81.7368 83.6912 81.9653L83.688 81.9663C82.7422 82.2714 81.8016 82.5764 80.8609 82.8815C80.558 82.9805 80.2543 83.073 79.9508 83.1655C79.49 83.3059 79.0296 83.4462 78.5728 83.6086C78.0648 83.7908 77.5472 83.9368 77.0283 84.0831C76.794 84.1492 76.5595 84.2153 76.3254 84.2849C76.0938 84.3538 75.8613 84.4209 75.6287 84.4881C75.2945 84.5846 74.9599 84.6813 74.6271 84.7832C74.2246 84.9065 73.8239 85.0354 73.4231 85.1644C72.8822 85.3383 72.3411 85.5124 71.795 85.673C71.6148 85.7252 71.4346 85.7771 71.2544 85.8289C70.662 85.9995 70.0702 86.1699 69.4814 86.3493C69.183 86.4396 68.8854 86.5387 68.5877 86.6378C68.165 86.7785 67.7419 86.9194 67.3154 87.0357C67.0168 87.1173 66.7203 87.2043 66.4238 87.2913C65.9074 87.4428 65.3911 87.5943 64.8646 87.717C64.6662 87.7633 64.4703 87.8148 64.2752 87.8661C63.485 88.0738 62.7088 88.2778 61.8443 88.1187C61.4039 88.0372 60.9761 87.9159 60.5501 87.7951C60.3121 87.7276 60.0746 87.6602 59.8358 87.6001C59.1289 87.4212 58.4255 87.2067 57.7227 86.9923C57.5864 86.9508 57.4501 86.9092 57.3139 86.8679C57.0995 86.8024 56.8812 86.7439 56.663 86.6853C56.3223 86.594 55.9817 86.5026 55.6563 86.3849C55.1865 86.2143 54.7086 86.0694 54.2303 85.9244C53.7818 85.7885 53.3331 85.6525 52.8902 85.495C52.4918 85.3531 52.0831 85.2405 51.6752 85.1281C51.323 85.0311 50.9715 84.9342 50.6275 84.8188C50.1555 84.66 49.6791 84.515 49.2027 84.37C48.5194 84.162 47.836 83.9539 47.1649 83.7052C46.6844 83.5273 46.1874 83.3976 45.6903 83.268C45.1933 83.1383 44.6963 83.0086 44.2158 82.8307C43.4837 82.561 42.7411 82.327 41.9994 82.0933C41.3709 81.8952 40.743 81.6974 40.1226 81.4782C39.8259 81.3742 39.5217 81.2923 39.218 81.2106C38.8089 81.1006 38.4006 80.9908 38.0125 80.8273C37.5085 80.6156 36.9876 80.4674 36.4676 80.3195C36.0013 80.1868 35.5357 80.0544 35.0838 79.8765C34.5034 79.6476 33.9067 79.4582 33.3094 79.2686C33.1635 79.2223 33.0176 79.176 32.8719 79.1291C32.3838 78.9714 31.8957 78.8291 31.4025 78.6867C31.133 78.6104 30.9753 78.6613 30.9957 79.0121C31.0175 79.3682 31.0133 79.7269 31.0092 80.0845Z" fill="#FEF5E3"/>
<path d="M102.423 51.4024C102.631 51.3647 102.863 51.3225 102.975 51.0872L102.97 51.077C102.804 50.9979 102.639 50.9126 102.474 50.8273C102.099 50.6328 101.723 50.438 101.327 50.3143C100.753 50.1361 100.197 49.9129 99.6406 49.6896C99.2607 49.5372 98.8808 49.3848 98.495 49.2465C97.4577 48.8754 96.4205 48.4686 95.3934 48.0567C94.9082 47.8631 94.4164 47.6866 93.925 47.5102C93.1908 47.2466 92.4574 46.9834 91.7477 46.6635C91.1208 46.3814 90.4842 46.1281 89.848 45.8748C89.349 45.6762 88.8501 45.4776 88.3562 45.2653C87.3749 44.8432 86.3783 44.4415 85.3715 44.0653C85.2905 44.0351 85.2094 44.0049 85.1283 43.9748C84.39 43.7003 83.6497 43.425 82.9258 43.1043C82.1381 42.7519 81.3293 42.4488 80.5201 42.1456C80.1384 42.0025 79.7565 41.8594 79.3767 41.7111C79.0009 41.5646 78.6251 41.4191 78.2494 41.2736C77.4256 40.9547 76.6025 40.636 75.7819 40.3077L75.5855 40.2295C74.1709 39.6657 72.7527 39.1004 71.3531 38.5027C70.6605 38.2069 69.9541 37.9464 69.2482 37.686C68.5342 37.4226 67.8207 37.1595 67.1227 36.8603C66.6878 36.675 66.243 36.5207 65.798 36.3664C65.2908 36.1905 64.7835 36.0146 64.2906 35.7925C63.8974 35.6142 63.459 35.5069 63.0268 35.4012C62.9169 35.3743 62.8073 35.3475 62.6991 35.3197C62.487 35.2629 62.2552 35.3556 62.033 35.4444C61.9569 35.4748 61.8819 35.5048 61.8092 35.5282C61.0988 35.7576 60.4 36.0241 59.702 36.2901C59.2711 36.4544 58.8404 36.6186 58.4076 36.7739C58.0064 36.9172 57.6134 37.0827 57.2204 37.2483C56.6372 37.494 56.0538 37.7397 55.4433 37.9129C55.2586 37.9661 55.0864 38.059 54.9144 38.1518C54.8401 38.1919 54.7659 38.232 54.6907 38.2688C54.309 38.453 53.9083 38.591 53.5089 38.7284C53.1368 38.8565 52.7659 38.9841 52.4128 39.1484C52.0308 39.3227 51.6422 39.4748 51.2543 39.6267C51.0535 39.7053 50.8529 39.7839 50.6535 39.8654C49.9486 40.1539 49.2368 40.4284 48.5241 40.7033C48.0184 40.8984 47.5122 41.0937 47.0078 41.2941C46.6374 41.4426 46.2705 41.6015 45.9037 41.7602C45.1779 42.0743 44.4527 42.3882 43.7028 42.6212C42.996 42.8399 42.274 43.0687 41.6283 43.3789C41.0701 43.6438 40.4949 43.8593 39.92 44.0747C39.3585 44.2851 38.7972 44.4955 38.252 44.7517C37.3691 45.1672 36.4507 45.5073 35.5323 45.8474C35.1021 46.0067 34.6719 46.166 34.2453 46.333C33.9055 46.4658 33.5681 46.6056 33.2308 46.7454C32.7152 46.9591 32.2001 47.1726 31.6776 47.3601C31.0193 47.596 30.3698 47.8526 29.7205 48.1092C29.1662 48.3283 28.6119 48.5473 28.0522 48.7533C27.7502 48.8644 27.4461 48.9709 27.1418 49.0774C26.2061 49.405 25.2686 49.7331 24.3862 50.1974C24.2024 50.2941 24.0053 50.3629 23.8073 50.432C23.485 50.5444 23.1602 50.6578 22.8862 50.894C22.7967 50.9697 22.6232 50.9475 22.4495 50.9253C22.3667 50.9147 22.2838 50.9041 22.21 50.9041C22.2503 51.0755 22.3661 51.0781 22.4826 51.0807C22.5424 51.0821 22.6023 51.0834 22.6523 51.1075C23.4507 51.5067 24.2912 51.7977 25.1322 52.0889C25.4588 52.202 25.7856 52.3151 26.1099 52.4346C27.0038 52.7644 27.9083 53.0703 28.8101 53.3754C29.1598 53.4937 29.5092 53.6119 29.8573 53.7312C30.0079 53.7833 30.1588 53.8351 30.3098 53.887C31.4123 54.2658 32.5205 54.6465 33.5894 55.1295C33.8884 55.2636 34.2151 55.3471 34.5449 55.4313C34.8152 55.5004 35.0876 55.57 35.3487 55.6685C35.9186 55.8848 36.4955 56.0825 37.073 56.2805C37.3509 56.3757 37.6288 56.471 37.9063 56.5684C38.3306 56.7209 38.7537 56.8734 39.1768 57.0258C39.6003 57.1784 40.0238 57.3311 40.4486 57.4837C40.7096 57.5786 40.9701 57.6758 41.2306 57.773C41.7515 57.9673 42.2723 58.1616 42.7977 58.3379C43.1671 58.4622 43.5247 58.6075 43.8833 58.7533C44.053 58.8222 44.2228 58.8913 44.3943 58.9582C44.7227 59.0854 45.0575 59.1935 45.3928 59.3017C45.9557 59.4834 46.5202 59.6655 47.0587 59.9396C47.5283 60.1779 48.0439 60.3244 48.5588 60.4708C48.7908 60.5367 49.0227 60.6026 49.2501 60.6768C49.4779 60.7521 49.7063 60.8248 49.9347 60.8974C50.3385 61.0259 50.7421 61.1543 51.1416 61.2972C51.6723 61.4841 52.2012 61.6818 52.7305 61.8796C53.0937 62.0153 53.457 62.1512 53.8212 62.2836C54.6704 62.5938 55.5144 62.8988 56.3636 63.2039C56.661 63.3119 56.9585 63.4213 57.2562 63.5308C57.7575 63.7152 58.2595 63.8998 58.7635 64.0785C58.9675 64.1516 59.1712 64.2258 59.3749 64.3C60.0498 64.5458 60.7252 64.7918 61.4126 64.9988C61.5152 65.0295 61.6179 65.0638 61.7211 65.0982C62.1652 65.2464 62.617 65.3972 63.0957 65.2734C63.3254 65.2144 63.5457 65.1288 63.7658 65.0434C63.9061 64.9889 64.0463 64.9345 64.1889 64.8869C64.6337 64.737 65.0786 64.5895 65.5235 64.4421C65.9684 64.2946 66.4133 64.1471 66.8583 63.9971C67.9362 63.631 69.0091 63.2599 70.082 62.8887C70.5345 62.731 70.987 62.5747 71.4396 62.4183C71.8921 62.262 72.3446 62.1056 72.7972 61.948C73.0161 61.871 73.2344 61.7921 73.4525 61.7133C74.0552 61.4956 74.6574 61.2781 75.2734 61.0989C75.6039 61.0073 75.7615 60.8701 75.7615 60.5446C75.7615 60.1293 75.7622 59.7136 75.7628 59.2977C75.7647 58.0487 75.7666 56.7976 75.7514 55.5464C75.7514 55.2312 75.6649 54.9464 75.2531 54.8142C74.8768 54.6922 74.4955 54.5549 74.1192 54.4075C72.6652 53.8381 71.2105 53.2684 69.7769 52.6584C69.5798 52.5727 69.3748 52.5175 69.1694 52.4622C68.8503 52.3762 68.5301 52.2899 68.2362 52.0889C67.5702 51.6312 66.8888 51.6973 66.1617 52.1448C65.1855 52.7448 64.0872 53.0499 62.9177 53.0905C61.8347 53.1312 60.7821 53.0397 59.7754 52.6431C59.7313 52.6254 59.6871 52.6077 59.6427 52.59C59.1643 52.3991 58.6713 52.2023 58.2805 51.8906C57.6856 51.4177 57.1314 50.8736 56.6788 50.2482C56.0178 49.3228 55.5755 48.2957 55.4026 47.1822C55.306 46.5669 55.2958 45.9263 55.3466 45.2856C55.3975 44.6704 55.4992 44.0755 55.6822 43.506C56.7042 40.3332 59.6737 38.5434 62.7906 38.4976C63.1981 38.4907 63.5918 38.5969 63.984 38.7027C64.1742 38.754 64.364 38.8052 64.555 38.8433C65.2058 38.9705 65.7905 39.2247 66.3498 39.5399C67.3566 40.0993 68.1498 40.8823 68.8362 41.8179C69.4362 42.6365 69.8227 43.5111 69.965 44.5026C69.9904 44.6958 70.021 44.8026 70.2396 44.8941C70.927 45.1704 71.6061 45.4671 72.2855 45.764C73.1941 46.1611 74.1035 46.5585 75.0344 46.9076C76.0013 47.2681 76.9526 47.6732 77.9045 48.0786C78.3893 48.2851 78.8742 48.4916 79.3615 48.6923C79.7273 48.8424 80.0983 48.9864 80.4695 49.1304C80.991 49.3328 81.5128 49.5352 82.0207 49.755C83.1495 50.2431 84.2122 50.8889 85.0614 51.8448C85.7173 52.5821 86.3122 53.3397 86.7952 54.199C87.0443 54.6451 87.2258 55.1192 87.4054 55.5885C87.5411 55.943 87.6757 56.2947 87.8376 56.6295C88.0784 56.5466 88.3173 56.468 88.5539 56.3902C89.0864 56.2151 89.607 56.044 90.1104 55.8363C91.177 55.3997 92.2645 55.0147 93.352 54.6298C94.0377 54.3871 94.7233 54.1444 95.4036 53.8888C96.5323 53.4668 97.6662 53.0702 98.8103 52.699C99.3804 52.514 99.9382 52.297 100.496 52.0801C101.072 51.8559 101.648 51.6318 102.237 51.4431C102.294 51.4259 102.357 51.4144 102.423 51.4024Z" fill="#FFE8BA"/>
<path d="M30.9705 66.3362V62.2939C30.9705 61.8769 31.1434 61.7651 31.5248 61.9176C32.4715 62.2951 33.4337 62.6282 34.3964 62.9614C35.0932 63.2026 35.7906 63.444 36.4823 63.7023C37.2262 63.9791 37.9739 64.2458 38.7216 64.5126C39.7318 64.8729 40.7428 65.2336 41.7449 65.6192C42.8473 66.0455 43.9679 66.4272 45.0889 66.8092C45.7464 67.0332 46.4043 67.2573 47.0584 67.4904C47.5606 67.6698 48.0594 67.8623 48.5583 68.0548C49.2614 68.3262 49.9648 68.5978 50.6787 68.8327C51.5738 69.1295 52.4545 69.4635 53.3348 69.7973C54.2646 70.1499 55.1941 70.5025 56.1396 70.8107C56.7472 71.0089 57.3468 71.2269 57.9458 71.4446C58.7754 71.7462 59.604 72.0474 60.4514 72.2954C60.6919 72.3649 60.9222 72.4586 61.1529 72.5523C61.5122 72.6984 61.8722 72.8447 62.2717 72.9004C62.7639 72.9666 63.1922 72.8242 63.6222 72.6812C63.7208 72.6484 63.8195 72.6155 63.9191 72.5852C64.6545 72.3592 65.3766 72.1001 66.1015 71.8399L66.1067 71.8381C66.2772 71.7769 66.448 71.7156 66.619 71.6547C66.9556 71.5359 67.2898 71.4102 67.6241 71.2845C68.1483 71.0873 68.6732 70.8899 69.2071 70.7191C70.0258 70.4598 70.8291 70.17 71.6325 69.8751C72.0662 69.7162 72.5043 69.5673 72.9425 69.4185C73.542 69.2147 74.1415 69.011 74.7291 68.7819C74.8993 68.7155 75.0627 68.6931 75.2276 68.6705C75.2647 68.6655 75.3019 68.6604 75.3392 68.6548C75.6087 68.6192 75.6799 68.8175 75.6901 69.0209C75.7579 70.4547 75.7533 71.8907 75.7488 73.3275C75.7466 74.0461 75.7443 74.7648 75.7511 75.4835V76.2309C75.7612 76.9326 75.6596 77.0953 74.9884 77.2529C74.0137 77.4838 73.0603 77.789 72.1062 78.0945C71.4426 78.3069 70.7787 78.5194 70.1071 78.7071C68.8004 79.0732 67.4936 79.4596 66.2174 79.9122C65.7711 80.0711 65.3152 80.1988 64.8596 80.3265C64.3235 80.4767 63.7877 80.6268 63.2683 80.8274C62.74 81.0331 62.2118 80.8348 61.7231 80.6514C61.6802 80.6353 61.6376 80.6193 61.5954 80.6037C61.2923 80.4907 60.9818 80.4046 60.6718 80.3187C60.4098 80.2461 60.1482 80.1736 59.892 80.0851C59.2132 79.8512 58.5287 79.6398 57.8428 79.4279C57.604 79.3541 57.365 79.2803 57.126 79.2054C56.3735 78.9664 55.6209 78.7275 54.8684 78.4936C54.3046 78.3166 53.7375 78.143 53.1724 77.97L53.1701 77.9693L52.7735 77.8478C52.5564 77.7797 52.3386 77.7123 52.1207 77.6449C51.7364 77.5259 51.3512 77.4067 50.9685 77.2834C50.7109 77.2011 50.4551 77.1133 50.1992 77.0254C49.7128 76.8585 49.2259 76.6913 48.7261 76.5614C48.2747 76.4457 47.836 76.293 47.3974 76.1405C46.8727 75.9579 46.3481 75.7754 45.8025 75.6563C45.3116 75.5506 44.8376 75.3804 44.3638 75.2103C44.1997 75.1514 44.035 75.0922 43.8703 75.036C43.6212 74.9505 43.3746 74.8573 43.1283 74.7641C42.6861 74.5967 42.2447 74.4297 41.7907 74.3089C40.8665 74.069 39.9618 73.7729 39.0564 73.4764C38.6569 73.3457 38.2567 73.2146 37.8552 73.0886C37.4373 72.9569 37.0172 72.8331 36.5975 72.7094C35.8989 72.5036 35.2005 72.2977 34.5145 72.0564C34.148 71.9269 33.7781 71.8047 33.4078 71.6823C32.6585 71.4347 31.9071 71.1864 31.179 70.8768C30.954 70.7809 30.9612 70.6304 30.9683 70.4813C30.9699 70.4485 30.9715 70.4157 30.9705 70.3835C30.9638 69.4851 30.966 68.5843 30.9683 67.6843C30.9694 67.2346 30.9705 66.7851 30.9705 66.3362Z" fill="#FFE8BA"/>
<path d="M88.2236 72.997C88.1491 72.8754 88.1563 72.7356 88.1634 72.5963C88.1656 72.5551 88.1677 72.5139 88.1677 72.4733V72.4677C88.1677 69.9577 88.1677 67.4478 88.1626 64.9328C88.1626 64.0684 88.305 63.9362 89.1439 63.6667C89.3547 63.5989 89.5658 63.5319 89.7769 63.4649C90.8641 63.1199 91.9515 62.7749 93.0032 62.3193C93.112 62.2719 93.2286 62.2499 93.3467 62.2277C93.4824 62.202 93.6201 62.176 93.7506 62.1108C93.9845 61.9989 94.1065 62.2277 94.1523 62.421C94.1767 62.5186 94.17 62.6234 94.1634 62.7271C94.1604 62.7745 94.1574 62.8223 94.1574 62.8684C94.1574 64.4613 94.1619 66.0565 94.1664 67.6509V67.6648V67.667C94.1687 68.4644 94.171 69.2615 94.1727 70.0581C94.1727 70.7835 93.8422 71.2496 93.1812 71.4564C92.7402 71.5942 92.3023 71.7455 91.8647 71.8967C91.3336 72.0802 90.8029 72.2636 90.2676 72.4225C90.0834 72.4769 89.8995 72.5352 89.7152 72.5936C89.2283 72.7479 88.7375 72.9035 88.2287 72.9919L88.2236 72.997Z" fill="#FFE8BA"/>
</g>
<defs>
<clipPath id="clip0_4_6">
<rect width="125" height="123" fill="white"/>
</clipPath>
</defs>
</svg>
