<svg width="231" height="136" viewBox="0 0 231 136" fill="none" xmlns="http://www.w3.org/2000/svg">
<path d="M216.501 39.0303C208.738 31.2577 198.206 26.8863 187.221 26.8766V26.8766C181.801 26.8834 176.437 27.9632 171.437 30.0534C170.03 30.6273 168.66 31.2862 167.333 32.0264C162.347 23.8735 155.67 16.8851 147.753 11.5331C139.835 6.1811 130.862 2.58999 121.438 1.00222C112.014 -0.585543 102.36 -0.132951 93.1258 2.3293C83.8919 4.79155 75.2938 9.20632 67.9118 15.2754L0 83.108L13.8112 96.9192C20.159 103.281 28.4031 107.407 37.3004 108.674C46.1977 109.941 55.2658 108.28 63.1371 103.943C72.0805 118.645 86.3843 129.299 103.032 133.657C108.684 135.16 114.507 135.922 120.355 135.926C135.775 135.975 150.715 130.573 162.538 120.675L230.47 52.8415L216.501 39.0303ZM58.4806 83.1277C56.4377 85.171 54.0124 86.7917 51.3431 87.8975C48.6737 89.0033 45.8127 89.5728 42.9234 89.5728C40.034 89.5728 37.1729 89.0033 34.5035 87.8975C31.8342 86.7917 29.4088 85.171 27.3659 83.1277L80.3221 30.1714C104.65 9.67159 143.321 19.9712 154.271 49.7837L134.225 69.3165C136.198 46.1334 111.437 32.934 93.7584 47.8304L58.4806 83.1277ZM149.793 105.739C125.465 126.238 86.7936 115.939 75.863 86.1465L95.9091 66.5939C93.9361 89.7771 118.698 102.976 136.376 88.08L171.634 52.7827C173.677 50.7395 176.102 49.1183 178.772 48.0125C181.441 46.9067 184.302 46.3376 187.191 46.3376C190.081 46.3376 192.942 46.9067 195.611 48.0125C198.28 49.1183 200.706 50.7395 202.749 52.7827L149.793 105.739Z" fill="url(#paint0_linear_3494_30525)"/>
<defs>
<linearGradient id="paint0_linear_3494_30525" x1="-11.3351" y1="82.4762" x2="230.442" y2="79.2718" gradientUnits="userSpaceOnUse">
<stop stop-color="#0097A7"/>
<stop offset="1" stop-color="#D8FB46"/>
</linearGradient>
</defs>
</svg>
