<svg width="129" height="129" viewBox="0 0 129 129" fill="none" xmlns="http://www.w3.org/2000/svg">
<path d="M0.132202 18.3134C0.132202 8.5627 8.03669 0.658203 17.7874 0.658203H64.1322C99.4784 0.658203 128.132 29.312 128.132 64.6582C128.132 100.004 99.4784 128.658 64.1322 128.658H17.7874C8.03669 128.658 0.132202 120.754 0.132202 111.003V18.3134Z" fill="#FDC307"/>
<path d="M85.97 94.0267C82.4608 90.9383 78.9974 87.809 75.4414 84.7624C74.8255 84.2355 74.4256 84.2477 73.8314 84.6705C72.1848 85.842 70.3589 86.7581 68.4552 87.5424C64.5838 89.1377 60.4885 89.7955 56.2435 89.7934C54.3935 89.7934 52.5435 89.7883 50.6936 89.7873C50.2879 89.7873 49.9588 90.0814 49.9588 90.444V103.825C49.9588 104.187 50.2868 104.48 50.6913 104.481C52.7961 104.485 54.9009 104.492 57.0068 104.501C59.2384 104.511 61.4758 104.411 63.6434 104.097C67.5513 103.53 71.377 102.598 75.0141 101.111C78.9506 99.5009 82.6003 97.5073 85.938 95.0429C86.4693 94.6507 86.4487 94.4475 85.97 94.0267Z" fill="#000141"/>
<path d="M56.4229 39.5527C59.1413 39.5793 61.87 39.7784 64.4581 40.5383C67.4736 41.4228 70.4811 42.3848 73.043 44.1578C73.3229 44.3508 73.6177 44.5337 73.8646 44.7563C74.3125 45.1597 74.6644 45.1097 75.0712 44.7277C75.5477 44.2794 76.0219 43.829 76.5201 43.399C79.6682 40.6864 82.8185 37.9758 85.9803 35.2755C86.3596 34.9518 86.4956 34.7669 85.9814 34.39C84.2811 33.144 82.5305 31.9675 80.6646 30.9247C73.7846 27.0795 66.2635 25.0124 58.1815 24.897C55.687 24.8612 53.1914 24.8408 50.697 24.8306C50.2902 24.8285 49.9588 25.1237 49.9588 25.4873V38.8807C49.9588 39.2433 50.2879 39.5374 50.6936 39.5364C52.603 39.5344 54.5124 39.5344 56.4218 39.5527H56.4229Z" fill="#000141"/>
<path d="M42.3162 24.8155H27.4524C26.9822 24.8155 26.6011 25.1562 26.6011 25.5764V103.717C26.6011 104.137 26.9822 104.478 27.4524 104.478H42.3162C42.7863 104.478 43.1675 104.137 43.1675 103.717V25.5764C43.1675 25.1562 42.7863 24.8155 42.3162 24.8155Z" fill="#000141"/>
<path d="M91.1408 39.1488C92.6548 40.694 94.0203 42.3352 95.2098 44.096C96.9513 46.6748 98.2539 49.4149 99.3589 52.2603C100.439 55.0434 100.973 57.8908 101.328 60.7984C101.532 62.4816 101.731 64.1596 101.635 65.8478C101.338 71.0473 100.164 76.0629 97.7854 80.8498C96.933 82.5656 95.9674 84.2446 94.8728 85.8072C93.7804 87.3667 92.6137 88.959 90.9603 90.3326C90.1044 89.534 89.2588 88.7189 88.3836 87.9305C85.4983 85.3302 82.6097 82.7331 79.7027 80.1512C79.3405 79.8295 79.3016 79.6732 79.649 79.2821C81.635 77.0393 82.9582 74.4717 83.9192 71.7673C84.9601 68.8392 85.4126 65.7957 85.007 62.7573C84.7396 60.7494 84.4322 58.7129 83.6449 56.7612C82.8462 54.784 81.8167 52.9303 80.5723 51.1593C80.2581 50.712 79.9838 50.2289 79.5896 49.8449C79.1954 49.4619 79.2205 49.2434 79.6307 48.891C82.516 46.4103 85.4263 43.954 88.2464 41.412C89.1137 40.6307 90.0199 39.8616 90.9591 39.1345C91.0197 39.1385 91.0814 39.1426 91.142 39.1457L91.1408 39.1488Z" fill="#000141"/>
</svg>
