<svg width="1172" height="633" viewBox="0 0 1172 633" fill="none" xmlns="http://www.w3.org/2000/svg">
<g clip-path="url(#clip0_604_21)">
<path d="M1171.47 24.5939C1170.37 36.6946 1159.67 45.6159 1147.57 44.5201C1135.47 43.4244 1126.55 32.7264 1127.65 20.6257C1128.74 8.52495 1139.44 -0.396336 1151.54 0.699453C1163.64 1.79524 1172.56 12.4931 1171.47 24.5939Z" fill="#FF9900"/>
<path d="M988.479 330.309L1132.23 57.0996L1093.81 78.7494C1012.09 124.796 952.071 150.189 897.162 154.279C843.041 158.31 792.11 141.722 728.393 99.3256L718.275 92.5929L710.877 102.235C678.767 144.09 652.081 166.632 621.968 176.745C591.686 186.915 555.737 185.275 503.274 173.562L494.165 171.529L489.325 179.51C465.419 218.935 445.463 243.405 420.34 257.666C395.436 271.803 363.536 276.954 313.409 273.061L304.271 272.351L300.533 280.719C279.426 327.959 259.046 358.42 230.187 379.602C201.195 400.882 162.16 413.889 101.455 422.939L62.5098 428.746L197.855 500.897L210.086 477.953L142.705 442.033C185.833 432.973 218.782 420.225 245.571 400.562C277.798 376.908 299.791 344.219 320.501 299.607C368.216 302.424 403.601 297.065 433.175 280.277C462.296 263.746 484.11 237.043 506.691 200.901C556.087 211.22 595.178 213.169 630.245 201.392C664.807 189.785 693.578 165.495 724.071 127.537C786.361 167.208 840.391 184.579 899.093 180.207C950.43 176.383 1004.08 155.98 1068.66 122.083L965.469 318.202L988.479 330.309Z" fill="#FF9900"/>
<path d="M20.9431 443.985C33.0438 445.081 43.7417 436.16 44.8375 424.059C45.9333 411.958 37.012 401.26 24.9113 400.164C12.8105 399.069 2.11262 407.99 1.01684 420.091C-0.078957 432.191 8.84233 442.889 20.9431 443.985Z" fill="#FF9900"/>
<path d="M499.653 137.418C498.557 149.519 487.859 158.44 475.758 157.344C463.658 156.248 454.736 145.55 455.832 133.45C456.928 121.349 467.626 112.428 479.727 113.523C491.827 114.619 500.749 125.317 499.653 137.418Z" fill="#FF9900"/>
<path d="M711.71 77.5895C723.811 78.6853 734.508 69.764 735.604 57.6633C736.7 45.5625 727.779 34.8646 715.678 33.7688C703.577 32.673 692.879 41.5943 691.784 53.6951C690.688 65.7958 699.609 76.4937 711.71 77.5895Z" fill="#FF9900"/>
<path d="M277.277 261.864C289.378 262.96 300.075 254.038 301.171 241.938C302.267 229.837 293.346 219.139 281.245 218.043C269.144 216.947 258.446 225.869 257.351 237.969C256.255 250.07 265.176 260.768 277.277 261.864Z" fill="#FF9900"/>
<path d="M340.968 474.16C350.413 476.859 360.288 478.208 370.592 478.208C382.859 478.208 392.979 476.368 400.952 472.688C409.048 469.008 415.12 464.163 419.168 458.152C423.216 452.142 425.24 445.518 425.24 438.28C425.24 431.534 423.829 425.952 421.008 421.536C418.309 417.12 414.752 413.563 410.336 410.864C405.92 408.166 401.013 406.019 395.616 404.424C390.341 402.83 385.005 401.419 379.608 400.192C374.333 398.966 369.488 397.739 365.072 396.512C360.656 395.286 357.099 393.691 354.4 391.728C351.701 389.643 350.352 386.944 350.352 383.632C350.352 380.811 351.149 378.358 352.744 376.272C354.339 374.064 356.976 372.286 360.656 370.936C364.336 369.587 369.059 368.912 374.824 368.912C380.589 368.912 386.477 369.771 392.488 371.488C398.499 373.083 404.509 375.598 410.52 379.032L419.72 356.4C413.709 352.598 406.779 349.776 398.928 347.936C391.077 345.974 383.104 344.992 375.008 344.992C362.864 344.992 352.744 346.832 344.648 350.512C336.675 354.07 330.664 358.915 326.616 365.048C322.691 371.059 320.728 377.744 320.728 385.104C320.728 391.974 322.077 397.616 324.776 402.032C327.597 406.448 331.216 410.006 335.632 412.704C340.048 415.403 344.893 417.611 350.168 419.328C355.565 421.046 360.901 422.518 366.176 423.744C371.573 424.848 376.48 426.075 380.896 427.424C385.312 428.651 388.869 430.307 391.568 432.392C394.267 434.355 395.616 437.054 395.616 440.488C395.616 443.187 394.757 445.579 393.04 447.664C391.323 449.75 388.624 451.406 384.944 452.632C381.387 453.736 376.664 454.288 370.776 454.288C363.048 454.288 355.381 453.062 347.776 450.608C340.293 448.032 333.792 444.782 328.272 440.856L318.152 463.304C323.917 467.72 331.523 471.339 340.968 474.16Z" fill="white"/>
<path d="M484.064 477.472C472.411 477.472 463.333 474.528 456.832 468.64C450.331 462.63 447.08 453.736 447.08 441.96V401.296H431.808V379.216H447.08V355.112H475.784V379.216H500.44V401.296H475.784V441.592C475.784 445.763 476.888 449.014 479.096 451.344C481.304 453.552 484.309 454.656 488.112 454.656C492.651 454.656 496.515 453.43 499.704 450.976L507.432 471.216C504.488 473.302 500.931 474.896 496.76 476C492.712 476.982 488.48 477.472 484.064 477.472Z" fill="white"/>
<path d="M732.293 468.64C738.794 474.528 747.872 477.472 759.525 477.472C763.941 477.472 768.173 476.982 772.221 476C776.392 474.896 779.949 473.302 782.893 471.216L775.165 450.976C771.976 453.43 768.112 454.656 763.573 454.656C759.77 454.656 756.765 453.552 754.557 451.344C752.349 449.014 751.245 445.763 751.245 441.592V401.296H775.901V379.216H751.245V355.112H722.541V379.216H707.269V401.296H722.541V441.96C722.541 453.736 725.792 462.63 732.293 468.64Z" fill="white"/>
<path fill-rule="evenodd" clip-rule="evenodd" d="M983.838 477.472C975.497 477.472 968.198 475.632 961.942 471.952C959.008 470.226 956.371 468.082 954.03 465.52V511.696H925.326V377.008H952.742V388.439C955.218 385.452 958.101 382.991 961.39 381.056C967.646 377.376 975.129 375.536 983.838 375.536C993.161 375.536 1001.5 377.683 1008.86 381.976C1016.34 386.147 1022.23 392.035 1026.53 399.64C1030.94 407.245 1033.15 416.2 1033.15 426.504C1033.15 436.931 1030.94 445.947 1026.53 453.552C1022.23 461.157 1016.34 467.045 1008.86 471.216C1001.5 475.387 993.161 477.472 983.838 477.472ZM978.87 453.92C983.654 453.92 987.886 452.816 991.566 450.608C995.369 448.4 998.374 445.272 1000.58 441.224C1002.91 437.053 1004.08 432.147 1004.08 426.504C1004.08 420.739 1002.91 415.832 1000.58 411.784C998.374 407.736 995.369 404.608 991.566 402.4C987.886 400.192 983.654 399.088 978.87 399.088C974.086 399.088 969.793 400.192 965.99 402.4C962.188 404.608 959.182 407.736 956.974 411.784C954.766 415.832 953.662 420.739 953.662 426.504C953.662 432.147 954.766 437.053 956.974 441.224C959.182 445.272 962.188 448.4 965.99 450.608C969.793 452.816 974.086 453.92 978.87 453.92Z" fill="white"/>
<path d="M840.774 477.472C832.555 477.472 825.195 475.877 818.694 472.688C812.315 469.499 807.347 464.653 803.79 458.152C800.232 451.528 798.454 443.125 798.454 432.944V377.008H827.158V428.712C827.158 436.93 828.875 443.002 832.31 446.928C835.867 450.73 840.835 452.632 847.214 452.632C851.63 452.632 855.555 451.712 858.99 449.872C862.424 447.909 865.123 444.965 867.086 441.04C869.048 436.992 870.03 431.962 870.03 425.952V377.008H898.734V476H871.502V464.401C868.794 467.604 865.543 470.244 861.75 472.32C855.371 475.754 848.379 477.472 840.774 477.472Z" fill="white"/>
<path d="M637.107 476V377.008H664.523V390.006C667.228 386.318 670.663 383.335 674.827 381.056C681.329 377.376 689.241 375.536 698.563 375.536V402.032C697.337 401.909 696.233 401.848 695.251 401.848C694.27 401.725 693.227 401.664 692.123 401.664C684.273 401.664 677.894 403.933 672.987 408.472C668.203 412.888 665.811 419.819 665.811 429.264V476H637.107Z" fill="white"/>
<path fill-rule="evenodd" clip-rule="evenodd" d="M584.265 463.699V476H611.129V419.512C611.129 404.424 606.958 393.323 598.617 386.208C590.276 379.093 578.561 375.536 563.473 375.536C555.622 375.536 547.894 376.579 540.289 378.664C532.684 380.749 526.182 383.693 520.785 387.496L531.089 407.552C534.646 404.731 538.94 402.523 543.969 400.928C549.121 399.211 554.334 398.352 559.609 398.352C567.337 398.352 573.041 400.069 576.721 403.504C580.524 406.939 582.425 411.723 582.425 417.856H559.609C549.55 417.856 541.393 419.144 535.137 421.72C528.881 424.173 524.281 427.608 521.337 432.024C518.516 436.44 517.105 441.592 517.105 447.48C517.105 453.123 518.577 458.213 521.521 462.752C524.465 467.291 528.697 470.909 534.217 473.608C539.737 476.184 546.361 477.472 554.089 477.472C562.798 477.472 569.913 475.816 575.433 472.504C579.16 470.268 582.104 467.333 584.265 463.699ZM582.425 444.72V434.6H562.737C555.99 434.6 551.329 435.704 548.753 437.912C546.3 440.12 545.073 442.88 545.073 446.192C545.073 449.872 546.484 452.816 549.305 455.024C552.249 457.109 556.236 458.152 561.265 458.152C566.049 458.152 570.342 457.048 574.145 454.84C577.948 452.509 580.708 449.136 582.425 444.72Z" fill="white"/>
<path d="M437.236 627.424C444.596 630.614 452.631 632.208 461.34 632.208C476.551 632.208 488.081 628.283 495.932 620.432C503.783 612.582 507.708 600.683 507.708 584.736V501.2H432.82V525.12H478.084V586.392C478.084 600.622 472.012 607.736 459.868 607.736C455.329 607.736 451.097 606.571 447.172 604.24C443.247 601.787 439.505 598.23 435.948 593.568L419.388 613.44C424.049 619.451 429.999 624.112 437.236 627.424Z" fill="#FF9900"/>
<path fill-rule="evenodd" clip-rule="evenodd" d="M584.255 631.472C572.969 631.472 563.034 629.264 554.447 624.848C545.983 620.432 539.42 614.421 534.759 606.816C530.098 599.088 527.767 590.317 527.767 580.504C527.767 570.568 530.036 561.797 534.575 554.192C539.236 546.464 545.554 540.453 553.527 536.16C561.5 531.744 570.516 529.536 580.575 529.536C590.266 529.536 598.975 531.621 606.703 535.792C614.553 539.84 620.748 545.728 625.287 553.456C629.826 561.061 632.095 570.2 632.095 580.872C632.095 581.976 632.033 583.264 631.911 584.736C631.788 586.085 631.666 587.373 631.543 588.6H556.644C557.222 591.235 558.146 593.689 559.415 595.96C561.868 600.008 565.242 603.136 569.535 605.344C573.951 607.429 579.103 608.472 584.991 608.472C590.266 608.472 594.865 607.675 598.791 606.08C602.839 604.485 606.519 602.093 609.831 598.904L625.103 615.464C620.564 620.616 614.86 624.603 607.991 627.424C601.122 630.123 593.209 631.472 584.255 631.472ZM559.047 563.576C557.701 566.03 556.79 568.79 556.313 571.856H605.061C604.596 568.738 603.671 565.916 602.287 563.392C600.201 559.589 597.319 556.645 593.639 554.56C589.959 552.352 585.666 551.248 580.759 551.248C575.852 551.248 571.497 552.352 567.695 554.56C564.015 556.645 561.132 559.651 559.047 563.576Z" fill="#FF9900"/>
<path d="M651.205 630H679.909V583.264C679.909 573.819 682.301 566.888 687.085 562.472C691.992 557.934 698.37 555.664 706.221 555.664C707.325 555.664 708.368 555.725 709.349 555.848C710.33 555.848 711.434 555.909 712.661 556.032V529.536C703.338 529.536 695.426 531.376 688.925 535.056C684.761 537.335 681.326 540.318 678.621 544.006V531.008H651.205V630Z" fill="#FF9900"/>
<path fill-rule="evenodd" clip-rule="evenodd" d="M777.958 631.472C766.673 631.472 756.737 629.264 748.15 624.848C739.686 620.432 733.124 614.421 728.462 606.816C723.801 599.088 721.47 590.317 721.47 580.504C721.47 570.568 723.74 561.797 728.278 554.192C732.94 546.464 739.257 540.453 747.23 536.16C755.204 531.744 764.22 529.536 774.278 529.536C783.969 529.536 792.678 531.621 800.406 535.792C808.257 539.84 814.452 545.728 818.99 553.456C823.529 561.061 825.798 570.2 825.798 580.872C825.798 581.976 825.737 583.264 825.614 584.736C825.492 586.085 825.369 587.373 825.246 588.6H750.347C750.925 591.235 751.849 593.689 753.118 595.96C755.572 600.008 758.945 603.136 763.238 605.344C767.654 607.429 772.806 608.472 778.694 608.472C783.969 608.472 788.569 607.675 792.494 606.08C796.542 604.485 800.222 602.093 803.534 598.904L818.806 615.464C814.268 620.616 808.564 624.603 801.694 627.424C794.825 630.123 786.913 631.472 777.958 631.472ZM752.75 563.576C751.405 566.03 750.493 568.79 750.016 571.856H798.765C798.299 568.738 797.374 565.916 795.99 563.392C793.905 559.589 791.022 556.645 787.342 554.56C783.662 552.352 779.369 551.248 774.462 551.248C769.556 551.248 765.201 552.352 761.398 554.56C757.718 556.645 754.836 559.651 752.75 563.576Z" fill="#FF9900"/>
<path d="M837.202 630V612.704L887.622 553.088H838.49V531.008H923.866V548.304L873.446 607.92H925.522V630H837.202Z" fill="#FF9900"/>
</g>
<defs>
<clipPath id="clip0_604_21">
<rect width="1172" height="633" fill="white"/>
</clipPath>
</defs>
</svg>
